<svg width="22" height="18" viewBox="0 0 22 18" fill="none" xmlns="http://www.w3.org/2000/svg">
<path fill-rule="evenodd" clip-rule="evenodd" d="M18.6602 0.989922C16.0202 -0.810078 12.7602 0.0299217 11.0002 2.08992C9.24021 0.0299217 5.98021 -0.820078 3.34021 0.989922C1.94021 1.94992 1.06021 3.56992 1.00021 5.27992C0.860213 9.15992 4.30021 12.2699 9.55021 17.0399L9.65021 17.1299C10.4102 17.8199 11.5802 17.8199 12.3402 17.1199L12.4502 17.0199C17.7002 12.2599 21.1302 9.14992 21.0002 5.26992C20.9402 3.56992 20.0602 1.94992 18.6602 0.989922ZM11.1002 15.5499L11.0002 15.6499L10.9002 15.5499C6.14021 11.2399 3.00021 8.38992 3.00021 5.49992C3.00021 3.49992 4.50021 1.99992 6.50021 1.99992C8.04021 1.99992 9.54021 2.98992 10.0702 4.35992H11.9402C12.4602 2.98992 13.9602 1.99992 15.5002 1.99992C17.5002 1.99992 19.0002 3.49992 19.0002 5.49992C19.0002 8.38992 15.8602 11.2399 11.1002 15.5499Z" fill="#0D6EFD"/>
</svg>
