<svg width="25" height="16" viewBox="0 0 25 16" fill="none" xmlns="http://www.w3.org/2000/svg">
<path d="M23.6882 5.90834H18.486L13.729 0.441675C13.5227 0.208342 13.1751 0.0916748 12.8276 0.0916748C12.48 0.0916748 12.1325 0.208342 11.9261 0.450008L7.16918 5.90834H1.96692C1.36959 5.90834 0.880859 6.28334 0.880859 6.74167C0.880859 6.81667 0.89172 6.89167 0.924302 6.96667L3.68291 14.6917C3.9327 15.3917 4.76897 15.9083 5.76815 15.9083H19.887C20.8862 15.9083 21.7225 15.3917 21.9831 14.6917L24.7417 6.96667L24.7743 6.74167C24.7743 6.28334 24.2856 5.90834 23.6882 5.90834ZM12.8276 2.40834L15.8686 5.90834H9.78659L12.8276 2.40834ZM19.887 14.2417L5.77901 14.25L3.38967 7.57501H22.2763L19.887 14.2417ZM12.8276 9.24167C11.6329 9.24167 10.6554 9.99167 10.6554 10.9083C10.6554 11.825 11.6329 12.575 12.8276 12.575C14.0222 12.575 14.9997 11.825 14.9997 10.9083C14.9997 9.99167 14.0222 9.24167 12.8276 9.24167Z" fill="#8B96A5"/>
</svg>
