<svg width="102" height="27" viewBox="0 0 102 27" fill="none" xmlns="http://www.w3.org/2000/svg">
<path d="M14.7283 0.689636C14.8775 2.04667 14.3401 3.38391 13.5548 4.36684C12.7353 5.33448 11.4244 6.07459 10.1476 5.97927C9.98044 4.6735 10.6274 3.28499 11.3516 2.43786C12.1702 1.47652 13.5917 0.739997 14.7283 0.689636Z" fill="white"/>
<path d="M18.9081 8.51787C18.7656 8.60299 16.4043 10.0136 16.4301 12.8903C16.4607 16.3643 19.4672 17.5127 19.5031 17.5244C19.4851 17.6053 19.0323 19.1836 17.9046 20.7825C16.963 22.1926 15.9764 23.5712 14.4093 23.5946C13.6641 23.6122 13.1609 23.3979 12.6366 23.1745C12.0899 22.9416 11.5203 22.6989 10.6292 22.6989C9.68454 22.6989 9.08957 22.9496 8.51587 23.1914C8.01945 23.4005 7.53896 23.603 6.86162 23.6306C5.36915 23.6854 4.22891 22.1269 3.2531 20.7294C1.30238 17.8778 -0.216144 12.6934 1.81994 9.16546C2.80653 7.43522 4.6054 6.321 6.52826 6.29132C7.37501 6.274 8.18713 6.60059 8.89906 6.8869C9.44349 7.10584 9.92934 7.30123 10.3273 7.30123C10.6768 7.30123 11.149 7.11366 11.6994 6.89504C12.5667 6.55051 13.6281 6.12887 14.7094 6.24276C15.4489 6.26434 17.5533 6.53503 18.911 8.51617L18.9081 8.51787Z" fill="white"/>
<path fill-rule="evenodd" clip-rule="evenodd" d="M29.7176 1.46415H27.6083V7.74512H29.7176C31.5833 7.74512 32.6793 6.58295 32.6793 4.60246C32.6793 2.62633 31.579 1.46415 29.7176 1.46415ZM28.3911 2.16929V7.03998H29.6654C31.0875 7.03998 31.879 6.16944 31.879 4.61117C31.879 3.03983 31.0919 2.16929 29.6654 2.16929H28.3911Z" fill="white"/>
<path fill-rule="evenodd" clip-rule="evenodd" d="M35.703 7.82347C34.4505 7.82347 33.6068 6.92246 33.6068 5.48171C33.6068 4.03661 34.4505 3.13995 35.703 3.13995C36.9512 3.13995 37.7949 4.03661 37.7949 5.48171C37.7949 6.92246 36.9512 7.82347 35.703 7.82347ZM37.0251 5.48171C37.0251 6.54813 36.5033 7.15751 35.703 7.15751C34.9028 7.15751 34.3766 6.54813 34.3766 5.48171C34.3766 4.41529 34.9028 3.80591 35.703 3.80591C36.5033 3.80591 37.0251 4.41529 37.0251 5.48171Z" fill="white"/>
<path d="M42.5757 7.74512H43.3455L44.6067 3.2183H43.8587L42.9541 6.9007H42.9367L41.9103 3.2183H41.1796L40.1576 6.9007H40.1402L39.2356 3.2183H38.4832L39.7488 7.74512H40.5186L41.5363 4.24118H41.5537L42.5757 7.74512Z" fill="white"/>
<path d="M46.2344 3.2183H45.5212V7.74512H46.2779V5.08126C46.2779 4.31518 46.7433 3.81027 47.4565 3.81027C48.1524 3.81027 48.4959 4.21072 48.4959 4.94197V7.74512H49.2527V4.80704C49.2527 3.7798 48.6786 3.13995 47.687 3.13995C46.9868 3.13995 46.5041 3.45334 46.2518 3.94085H46.2344V3.2183Z" fill="white"/>
<path d="M50.5499 1.46415V7.74512H51.3066V1.46415H50.5499Z" fill="white"/>
<path fill-rule="evenodd" clip-rule="evenodd" d="M52.4037 5.48171C52.4037 6.92246 53.2474 7.82347 54.5 7.82347C55.7481 7.82347 56.5919 6.92246 56.5919 5.48171C56.5919 4.03661 55.7481 3.13995 54.5 3.13995C53.2474 3.13995 52.4037 4.03661 52.4037 5.48171ZM54.5 7.15751C55.3002 7.15751 55.8221 6.54813 55.8221 5.48171C55.8221 4.41529 55.3002 3.80591 54.5 3.80591C53.6997 3.80591 53.1735 4.41529 53.1735 5.48171C53.1735 6.54813 53.6997 7.15751 54.5 7.15751Z" fill="white"/>
<path fill-rule="evenodd" clip-rule="evenodd" d="M58.972 7.82347C58.0717 7.82347 57.4672 7.27938 57.4672 6.46543C57.4672 5.69064 58.063 5.20314 59.1068 5.1422L60.4028 5.0682V4.68952C60.4028 4.13672 60.0375 3.80591 59.4112 3.80591C58.8284 3.80591 58.4631 4.08013 58.3674 4.52411H57.6368C57.689 3.74062 58.3587 3.13995 59.4286 3.13995C60.4898 3.13995 61.1595 3.71451 61.1595 4.61552V7.74512H60.4419V6.96599H60.4245C60.1549 7.48396 59.5808 7.82347 58.972 7.82347ZM60.4028 6.0258C60.4028 6.67871 59.8548 7.17927 59.1416 7.17927C58.5979 7.17927 58.237 6.89634 58.237 6.46543C58.237 6.03886 58.5849 5.76899 59.1938 5.72982L60.4028 5.65582V6.0258Z" fill="white"/>
<path fill-rule="evenodd" clip-rule="evenodd" d="M62.1958 5.48171C62.1958 6.9007 62.9786 7.82347 64.1311 7.82347C64.7835 7.82347 65.301 7.50137 65.5924 6.97905H65.6054V7.74512H66.3274V1.46415H65.5706V3.95391H65.5532C65.2836 3.4577 64.7617 3.13995 64.1137 3.13995C62.9743 3.13995 62.1958 4.06272 62.1958 5.48171ZM64.2746 3.80591C63.4744 3.80591 62.9699 4.45882 62.9699 5.48171C62.9699 6.50895 63.4744 7.15751 64.2746 7.15751C65.0531 7.15751 65.575 6.49589 65.575 5.48171C65.575 4.47188 65.0531 3.80591 64.2746 3.80591Z" fill="white"/>
<path fill-rule="evenodd" clip-rule="evenodd" d="M71.6443 7.82347C70.3917 7.82347 69.548 6.92246 69.548 5.48171C69.548 4.03661 70.3917 3.13995 71.6443 3.13995C72.8924 3.13995 73.7362 4.03661 73.7362 5.48171C73.7362 6.92246 72.8924 7.82347 71.6443 7.82347ZM72.9664 5.48171C72.9664 6.54813 72.4445 7.15751 71.6442 7.15751C70.844 7.15751 70.3178 6.54813 70.3178 5.48171C70.3178 4.41529 70.844 3.80591 71.6442 3.80591C72.4445 3.80591 72.9664 4.41529 72.9664 5.48171Z" fill="white"/>
<path d="M75.5074 3.2183H74.7941V7.74512H75.5509V5.08126C75.5509 4.31518 76.0162 3.81027 76.7295 3.81027C77.4253 3.81027 77.7689 4.21072 77.7689 4.94197V7.74512H78.5256V4.80704C78.5256 3.7798 77.9516 3.13995 76.96 3.13995C76.2598 3.13995 75.777 3.45334 75.5248 3.94085H75.5074V3.2183Z" fill="white"/>
<path d="M82.9075 2.12576H82.1507V3.2183H81.4766V3.84073H82.1507V6.56989C82.1507 7.44043 82.4725 7.77995 83.3032 7.77995C83.4815 7.77995 83.6903 7.76689 83.7816 7.74512V7.10963C83.7294 7.11833 83.5555 7.13139 83.4685 7.13139C83.0814 7.13139 82.9075 6.94422 82.9075 6.53072V3.84073H83.786V3.2183H82.9075V2.12576Z" fill="white"/>
<path d="M84.9266 1.46415V7.74512H85.6833V5.10738C85.6833 4.32389 86.1487 3.81027 86.9011 3.81027C87.61 3.81027 87.9709 4.24119 87.9709 4.95938V7.74512H88.7277V4.8201C88.7277 3.81027 88.1275 3.13995 87.1359 3.13995C86.4488 3.13995 85.953 3.43593 85.7007 3.94085H85.6833V1.46415H84.9266Z" fill="white"/>
<path fill-rule="evenodd" clip-rule="evenodd" d="M93.7302 6.44801H92.9866C92.8604 6.87458 92.4386 7.16621 91.8645 7.16621C91.0512 7.16621 90.5424 6.59601 90.5424 5.72982V5.68629H93.7868V5.39901C93.7868 4.0279 93.0344 3.13995 91.8123 3.13995C90.5641 3.13995 89.7639 4.09319 89.7639 5.49912C89.7639 6.92246 90.5511 7.82347 91.8471 7.82347C92.8343 7.82347 93.5998 7.24021 93.7302 6.44801ZM91.7993 3.79721C91.0904 3.79721 90.5946 4.3413 90.5467 5.09432H93.004C92.9866 4.33694 92.5125 3.79721 91.7993 3.79721Z" fill="white"/>
<path fill-rule="evenodd" clip-rule="evenodd" d="M34.9366 23.1427L33.8406 19.9019H29.2741L28.1781 23.1427H26.2436L30.5693 11.1517H32.5786L36.9043 23.1427H34.9366ZM29.7474 18.4061L31.5325 13.1461H31.5823L33.3674 18.4061H29.7474Z" fill="white"/>
<path fill-rule="evenodd" clip-rule="evenodd" d="M46.6415 18.7718C46.6415 16.0046 45.1802 14.2596 42.9634 14.2596C41.7014 14.2596 40.6967 14.8994 40.182 15.9049H40.1487V14.4008H38.4135V26.0345H40.2069V21.7051H40.2484C40.7465 22.6773 41.7429 23.2922 42.9966 23.2922C45.1885 23.2922 46.6415 21.5389 46.6415 18.7718ZM42.4901 21.7716C43.9099 21.7716 44.7983 20.6082 44.7983 18.7718C44.7983 16.9436 43.9099 15.7719 42.4901 15.7719C41.1202 15.7719 40.1986 16.9685 40.1986 18.7718C40.1986 20.5916 41.1119 21.7716 42.4901 21.7716Z" fill="white"/>
<path fill-rule="evenodd" clip-rule="evenodd" d="M52.9745 14.2596C55.1914 14.2596 56.6526 16.0046 56.6526 18.7718C56.6526 21.5389 55.1997 23.2922 53.0077 23.2922C51.754 23.2922 50.7577 22.6773 50.2595 21.7051H50.218V26.0345H48.4246V14.4008H50.1599V15.9049H50.1931C50.7079 14.8994 51.7125 14.2596 52.9745 14.2596ZM54.8094 18.7718C54.8094 20.6082 53.921 21.7716 52.5013 21.7716C51.123 21.7716 50.2097 20.5916 50.2097 18.7718C50.2097 16.9685 51.1313 15.7719 52.5013 15.7719C53.921 15.7719 54.8094 16.9436 54.8094 18.7718Z" fill="white"/>
<path d="M63.8057 19.8022H61.9708C62.087 21.971 63.8804 23.3421 66.5373 23.3421C69.3768 23.3421 71.1619 21.9378 71.1619 19.6941C71.1619 17.9408 70.1407 16.9519 67.6831 16.3702L66.3629 16.0462C64.8186 15.6639 64.1876 15.1653 64.1876 14.3177C64.1876 13.2541 65.1756 12.5228 66.6203 12.5228C68.065 12.5228 69.053 13.2458 69.1609 14.4424H70.9709C70.9128 12.3733 69.1776 10.9523 66.6452 10.9523C64.088 10.9523 62.2863 12.3733 62.2863 14.4424C62.2863 16.1126 63.3075 17.143 65.5077 17.6749L67.0603 18.0488C68.613 18.4311 69.2689 18.9878 69.2689 19.9185C69.2689 20.9905 68.1812 21.7716 66.6701 21.7716C65.0926 21.7716 63.9385 20.9905 63.8057 19.8022Z" fill="white"/>
<path d="M75.3445 12.3317H73.5428V14.4008H72.2725V15.8218H73.5428V20.8409C73.5428 22.5278 74.2319 23.2008 76.0004 23.2008C76.399 23.2008 76.7975 23.1676 76.9968 23.1177V21.6968C76.8805 21.7217 76.5899 21.7383 76.4073 21.7383C75.6766 21.7383 75.3445 21.3976 75.3445 20.6414V15.8218H77.0051V14.4008H75.3445V12.3317Z" fill="white"/>
<path fill-rule="evenodd" clip-rule="evenodd" d="M78.2817 18.7718C78.2817 21.5888 79.9257 23.3089 82.4248 23.3089C84.9239 23.3089 86.5679 21.5888 86.5679 18.7718C86.5679 15.9631 84.9156 14.2429 82.4248 14.2429C79.934 14.2429 78.2817 15.9631 78.2817 18.7718ZM82.4248 21.8297C83.8363 21.8297 84.7413 20.7162 84.7413 18.7718C84.7413 16.8356 83.828 15.7221 82.4248 15.7221C81.0216 15.7221 80.1083 16.8356 80.1083 18.7718C80.1083 20.7162 81.0216 21.8297 82.4248 21.8297Z" fill="white"/>
<path d="M88.3593 14.4008H90.0697V15.8883H90.1112C90.4018 14.8662 91.1822 14.2596 92.2118 14.2596C92.4691 14.2596 92.6933 14.3011 92.8262 14.326V15.9963C92.685 15.9381 92.3695 15.8966 92.0208 15.8966C90.8667 15.8966 90.1527 16.6694 90.1527 17.9075V23.1427H88.3593V14.4008Z" fill="white"/>
<path fill-rule="evenodd" clip-rule="evenodd" d="M100.131 20.5812H101.833C101.584 22.1766 100.072 23.3151 98.0715 23.3151C95.506 23.3151 93.9534 21.5783 93.9534 18.8195C93.9534 16.0773 95.5309 14.2492 97.9968 14.2492C100.421 14.2492 101.932 15.961 101.932 18.6118V19.2267H95.7634V19.3347C95.7634 20.8554 96.6767 21.8609 98.113 21.8609C99.1343 21.8609 99.8898 21.3457 100.131 20.5812ZM95.7634 18.0752L100.131 18.0338C100.131 17.6655 99.9766 16.9827 99.6148 16.6207C99.253 16.2586 98.7203 15.9837 97.9968 15.9837C96.5399 15.9837 95.7634 16.9579 95.7634 18.0752Z" fill="white"/>
</svg>
