<svg width="103" height="26" viewBox="0 0 103 26" fill="none" xmlns="http://www.w3.org/2000/svg">
<path d="M27.81 3.19071H25.2919V3.93858H27.0779C26.9896 4.98741 26.1178 5.4347 25.2949 5.4347C24.2421 5.4347 23.3233 4.60561 23.3233 3.4435C23.3233 2.3115 24.1991 1.43974 25.2971 1.43974C26.1445 1.43974 26.6437 1.98018 26.6437 1.98018L27.1669 1.43791C27.1669 1.43791 26.4953 0.689667 25.2704 0.689667C23.7107 0.689667 22.5043 2.00713 22.5043 3.43008C22.5043 4.82462 23.6392 6.18415 25.3101 6.18415C26.7799 6.18415 27.8557 5.17666 27.8557 3.68665C27.8557 3.37228 27.81 3.19071 27.81 3.19071Z" fill="white"/>
<path d="M28.2845 15.2445H33.818C33.8219 15.2602 33.918 15.6573 33.918 16.334C33.918 19.6082 31.5541 21.8224 28.3247 21.8224C24.6528 21.8224 22.1589 18.8347 22.1589 15.7707C22.1589 12.6437 24.8102 9.74866 28.2373 9.74878C30.9288 9.74878 32.4045 11.3929 32.4045 11.3929L31.2547 12.5846C31.2547 12.5846 30.1578 11.3967 28.2961 11.3967C25.8833 11.3967 23.9588 13.3124 23.9588 15.7999C23.9588 18.3533 25.9776 20.1752 28.2911 20.1752C30.0993 20.1752 32.015 19.1924 32.209 16.8879H28.2845V15.2445Z" fill="white"/>
<path fill-rule="evenodd" clip-rule="evenodd" d="M34.624 17.9031C34.624 15.8309 36.2511 14.0543 38.5219 14.0543C40.3882 14.0543 42.4122 15.378 42.4122 17.9482C42.4122 20.1906 40.6722 21.8154 38.5483 21.8154C36.2021 21.8154 34.624 20.0057 34.624 17.9031ZM40.719 17.938C40.719 16.4821 39.6609 15.5785 38.5443 15.5785C37.2897 15.5785 36.3255 16.5824 36.3255 17.9266C36.3255 19.3003 37.3018 20.2922 38.5392 20.2922C39.6653 20.2922 40.719 19.3629 40.719 17.938Z" fill="white"/>
<path fill-rule="evenodd" clip-rule="evenodd" d="M47.091 14.0543C44.8204 14.0543 43.1931 15.8309 43.1931 17.9031C43.1931 20.0057 44.7714 21.8154 47.1177 21.8154C49.2415 21.8154 50.9815 20.1906 50.9815 17.9482C50.9815 15.378 48.9576 14.0543 47.091 14.0543ZM47.1135 15.5785C48.2301 15.5785 49.2883 16.4821 49.2883 17.938C49.2883 19.3629 48.2346 20.2922 47.1083 20.2922C45.871 20.2922 44.8948 19.3003 44.8948 17.9266C44.8948 16.5824 45.8588 15.5785 47.1135 15.5785Z" fill="white"/>
<path fill-rule="evenodd" clip-rule="evenodd" d="M51.7621 17.9358C51.7621 15.8853 53.4005 14.0585 55.4844 14.0585C56.3918 14.0585 57.0753 14.4099 57.5751 14.949V14.2917H59.2007V21.2647C59.2007 24.0044 57.6214 25.3104 55.5491 25.3104C53.6548 25.3104 52.5906 24.1446 52.0618 23.0253L53.5521 22.4018C53.7585 22.9019 54.3525 23.7836 55.5368 23.7836C56.7628 23.7836 57.575 22.9815 57.575 21.6427V20.8775C57.1412 21.3814 56.5537 21.8205 55.4485 21.8205C53.6613 21.8205 51.7621 20.2716 51.7621 17.9358ZM55.6353 15.5796C56.6572 15.5796 57.7064 16.4528 57.7064 17.944C57.7064 19.4598 56.6593 20.2951 55.6127 20.2951C54.5018 20.2951 53.4679 19.3922 53.4679 17.9584C53.4679 16.4687 54.5416 15.5796 55.6353 15.5796Z" fill="white"/>
<path fill-rule="evenodd" clip-rule="evenodd" d="M63.1539 17.9245C63.1539 15.6146 64.8045 14.0491 66.7704 14.0491C68.3209 14.0491 69.4925 15.0841 69.9947 16.3232L70.2647 16.9559L65.0657 19.1149C65.3763 19.6936 65.8775 20.291 66.9674 20.2911C67.9377 20.2911 68.5193 19.7631 68.8671 19.2227L70.2074 20.1154C69.6064 20.9202 68.5997 21.8183 66.9592 21.8183C64.9937 21.8183 63.1539 20.3688 63.1539 17.9245ZM66.8382 15.5417C67.5466 15.5417 68.0564 15.9185 68.2729 16.3705L64.8009 17.8228C64.6513 16.6984 65.7158 15.5417 66.8382 15.5417Z" fill="white"/>
<path d="M62.2121 21.5879H60.5044V10.1501H62.2121V21.5879Z" fill="white"/>
<path d="M83.4003 21.5879H85.108V10.1501H83.4003V21.5879Z" fill="white"/>
<path fill-rule="evenodd" clip-rule="evenodd" d="M76.0521 21.5879H74.3444V10.1501L78.4753 10.15C80.4777 10.15 82.116 11.7896 82.116 13.7937C82.116 15.7977 80.4777 17.4374 78.4753 17.4374H76.0521V21.5879ZM76.0521 15.7282V11.8591H78.4753C79.5352 11.8591 80.4084 12.733 80.4084 13.7937C80.4084 14.8544 79.5352 15.7282 78.4753 15.7282H76.0521Z" fill="white"/>
<path d="M97.7163 25.3104L102.661 14.0493H100.796L98.5581 19.1452L96.3206 14.0493H94.4555L97.6255 21.2692L95.8512 25.3104H97.7163Z" fill="white"/>
<path fill-rule="evenodd" clip-rule="evenodd" d="M92.0971 21.5879H93.8048V17.4742C94.072 13.2315 88.6976 12.2336 86.6639 15.2922L88.0382 16.215C89.0325 14.4751 91.8699 14.8755 92.0564 16.7401C91.2037 16.514 90.2825 16.3501 89.4408 16.4354C88.127 16.5684 87.0022 17.4035 86.8234 18.7712C86.7268 19.5103 86.8916 20.4213 87.4072 20.9765C88.2106 21.8416 89.5296 21.9582 90.6132 21.6626C91.2233 21.4961 91.7036 21.1333 92.0971 20.6647V21.5879ZM90.2073 20.1717C91.1419 19.917 91.8787 19.2327 92.0971 18.2816C91.6193 18.1267 91.1797 18.0017 90.6759 17.9409C87.7414 17.4993 88.2326 20.7104 90.2073 20.1717Z" fill="white"/>
<path d="M38.8798 6.07758H38.1027V0.872337H38.8798V6.07758Z" fill="white"/>
<path d="M33.7505 6.07758H34.5277V1.65009H35.8034V0.872337H32.4748V1.65009H33.7505V6.07758Z" fill="white"/>
<path d="M31.6554 6.07758H28.675V0.872337H31.6554V1.65009H29.4522V3.08608H31.3902V3.86383H29.4522V5.29971H31.6554V6.07758Z" fill="white"/>
<path d="M41.5653 6.07758V1.65009H42.841V0.872337H39.5125V1.65009H40.7882V6.07758H41.5653Z" fill="white"/>
<path fill-rule="evenodd" clip-rule="evenodd" d="M44.8406 3.43008C44.8406 2.00701 46.0472 0.689667 47.6069 0.689667C49.1665 0.689667 50.3731 2.00701 50.3731 3.43008C50.3731 4.8134 49.2561 6.16233 47.6069 6.18367C45.9576 6.16233 44.8406 4.8134 44.8406 3.43008ZM47.6069 5.43433C46.5643 5.42153 45.6597 4.59658 45.6597 3.4435C45.6597 2.32077 46.5214 1.454 47.6069 1.43998C48.6925 1.454 49.554 2.32077 49.554 3.4435C49.554 4.59658 48.6495 5.42153 47.6069 5.43433Z" fill="white"/>
<path d="M51.9266 6.07758H51.1494V0.872337H51.9266L54.4213 4.66195V0.872337H55.1985V6.07758H54.4226L51.9266 2.28602V6.07758Z" fill="white"/>
<path d="M1.28412 7.18225L10.0649 15.9572L1.32628 24.8092C1.07127 24.647 0.934563 24.2958 0.932248 23.8422L0.853052 8.13133C0.850615 7.63454 1.03118 7.33151 1.28412 7.18225Z" fill="white"/>
<path d="M2.28297 7.19408L12.9604 13.0243L10.4281 15.5892L1.91038 7.0769C2.03941 7.09385 2.16892 7.13177 2.28297 7.19408Z" fill="white"/>
<path d="M13.4352 18.5944L10.7939 15.9547L13.4326 13.2821L17.0663 15.2659C17.9615 15.7544 17.5036 16.3656 17.0663 16.6051L13.4352 18.5944Z" fill="white"/>
<path d="M2.28297 24.7031C2.20231 24.7482 2.12457 24.7836 2.05013 24.8116L10.4307 16.3227L12.9626 18.853L2.28297 24.7031Z" fill="white"/>
</svg>
