<svg width="151" height="46" viewBox="0 0 151 46" fill="none" xmlns="http://www.w3.org/2000/svg">
<path d="M50.2134 32.8061H59.1027C63.776 32.8061 66.265 30.3679 66.265 27.056C66.265 23.9778 64.0604 22.1186 61.6933 22.0069V21.8037C63.8573 21.316 65.4523 19.782 65.4523 17.3336C65.4523 14.2147 63.1359 12 58.544 12H50.2134V32.8061ZM54.6123 29.2098V23.6831H58.3001C60.4133 23.6831 61.7238 24.9022 61.7238 26.6192C61.7238 28.1837 60.6571 29.2098 58.1985 29.2098H54.6123ZM54.6123 20.7065V15.5557H57.9547C59.9053 15.5557 61.0127 16.5615 61.0127 18.0651C61.0127 19.7109 59.6716 20.7065 57.8735 20.7065H54.6123Z" fill="#8CB7F5"/>
<path d="M68.5179 32.8061H72.8458V23.9778C72.8458 22.0577 74.2478 20.737 76.1577 20.737C76.7571 20.737 77.58 20.8385 77.9864 20.9706V17.1304C77.6003 17.039 77.0619 16.978 76.625 16.978C74.8776 16.978 73.4452 17.994 72.8763 19.9242H72.7137V17.2015H68.5179V32.8061Z" fill="#8CB7F5"/>
<path d="M83.6985 33.1008C86.0047 33.1008 87.4981 32.095 88.26 30.6422H88.3819V32.8061H92.4863V22.2812C92.4863 18.5629 89.3369 16.9984 85.8624 16.9984C82.1238 16.9984 79.6653 18.7864 79.0659 21.631L83.0686 21.9561C83.3633 20.9198 84.2878 20.1579 85.8421 20.1579C87.3152 20.1579 88.1584 20.8995 88.1584 22.1796V22.2405C88.1584 23.2463 87.0917 23.3784 84.3792 23.6425C81.2908 23.927 78.5173 24.9632 78.5173 28.4478C78.5173 31.5362 80.7219 33.1008 83.6985 33.1008ZM84.9379 30.1139C83.6071 30.1139 82.6521 29.4942 82.6521 28.3056C82.6521 27.0865 83.6579 26.4871 85.1818 26.2737C86.1266 26.1417 87.6708 25.9182 88.1889 25.5728V27.2287C88.1889 28.8644 86.8377 30.1139 84.9379 30.1139Z" fill="#8CB7F5"/>
<path d="M99.6436 23.7847C99.6537 21.7732 100.853 20.5947 102.6 20.5947C104.337 20.5947 105.384 21.7326 105.373 23.6425V32.8061H109.701V22.8704C109.701 19.2334 107.568 16.9984 104.317 16.9984C102.001 16.9984 100.324 18.1362 99.6233 19.9547H99.4404V17.2015H95.3157V32.8061H99.6436V23.7847Z" fill="#8CB7F5"/>
<path d="M118.334 33.0601C120.854 33.0601 122.164 31.6074 122.764 30.307H122.946V32.8061H127.213V12H122.896V19.8226H122.764C122.185 18.5527 120.935 16.9984 118.324 16.9984C114.9 16.9984 112.005 19.6601 112.005 25.0242C112.005 30.246 114.778 33.0601 118.334 33.0601ZM119.706 29.6161C117.582 29.6161 116.424 27.7265 116.424 25.0038C116.424 22.3015 117.562 20.4423 119.706 20.4423C121.809 20.4423 122.987 22.2202 122.987 25.0038C122.987 27.7875 121.788 29.6161 119.706 29.6161Z" fill="#8CB7F5"/>
<g opacity="0.8">
<path fill-rule="evenodd" clip-rule="evenodd" d="M14.4676 2.91309H37.185C40.9489 2.91309 44.0002 6.28555 44.0002 10.4457V35.5544C44.0002 39.7145 40.9489 43.087 37.185 43.087H14.4676C10.7036 43.087 7.65234 39.7145 7.65234 35.5544L7.65234 10.4457C7.65234 6.28555 10.7036 2.91309 14.4676 2.91309Z" fill="#0D6EFD" fill-opacity="0.2"/>
<path fill-rule="evenodd" clip-rule="evenodd" d="M8.13046 2.91309H32.0435C36.0055 2.91309 39.2174 6.28555 39.2174 10.4457V35.5544C39.2174 39.7145 36.0055 43.087 32.0435 43.087H8.13046C4.16841 43.087 0.956542 39.7145 0.956543 35.5544L0.956543 10.4457C0.956543 6.28555 4.16841 2.91309 8.13046 2.91309Z" fill="#0D6EFD"/>
<g opacity="0.7">
<path opacity="0.3" fill-rule="evenodd" clip-rule="evenodd" d="M15.2902 19.3562H14.3097C14.2592 19.3562 14.1842 19.4265 14.1813 19.473L13.459 31.1476L26.9549 31.1451L26.2254 19.473C26.2226 19.4283 26.1458 19.3562 26.097 19.3562H25.1165V21.3214C25.1165 21.8641 24.6765 22.3041 24.1338 22.3041C23.5912 22.3041 23.1512 21.8641 23.1512 21.3214V19.3562H17.2555V21.3214C17.2555 21.8641 16.8156 22.3041 16.2729 22.3041C15.7302 22.3041 15.2902 21.8641 15.2902 21.3214V19.3562Z" fill="white"/>
<path fill-rule="evenodd" clip-rule="evenodd" d="M20.2035 12.4783C22.9156 12.4783 25.1166 14.6796 25.1166 17.3891L26.0972 17.3914C27.1837 17.3914 28.1194 18.2704 28.187 19.3508L28.9247 31.1539C28.9923 32.2361 28.17 33.1133 27.0867 33.1133H13.3203C12.2376 33.1133 11.4149 32.2344 11.4824 31.1539L12.2201 19.3508C12.2877 18.2686 13.2215 17.3914 14.3099 17.3914H15.2904C15.2904 14.6781 17.4933 12.4783 20.2035 12.4783ZM23.1514 17.3915C23.1514 15.765 21.8302 14.4436 20.2035 14.4436C18.5781 14.4436 17.2557 15.7642 17.2557 17.3892L23.1514 17.3915ZM15.2904 19.3566H14.3099C14.2593 19.3566 14.1844 19.4269 14.1815 19.4733L13.4592 31.148L26.9551 31.1455L26.2256 19.4733C26.2228 19.4286 26.1459 19.3566 26.0972 19.3566H25.1166V21.3218C25.1166 21.8645 24.6767 22.3044 24.134 22.3044C23.5913 22.3044 23.1514 21.8645 23.1514 21.3218V19.3566H17.2557V21.3218C17.2557 21.8645 16.8157 22.3044 16.273 22.3044C15.7304 22.3044 15.2904 21.8645 15.2904 21.3218V19.3566Z" fill="white"/>
</g>
</g>
</svg>
